<svg width="150" height="150" viewBox="0 0 150 150" fill="none" xmlns="http://www.w3.org/2000/svg">
<g clip-path="url(#clip0_79_6)">
<path d="M120 0H30C-1.90735e-06 0 0 4.76837e-06 0 4.76837e-06V120V150H30H120H150V120V30V0H120Z" fill="url(#paint0_linear_79_6)"/>
<path d="M120 0H30H0V30V120V150H30H120H150V120V30V0H120Z" fill="url(#paint1_linear_79_6)" fill-opacity="0.43"/>
<path d="M44.7812 39.75V108H35.7344V39.75H44.7812ZM113.734 39.75V108H104.641L70.2812 55.3594V108H61.2344V39.75H70.2812L104.781 92.5312V39.75H113.734Z" fill="url(#paint2_linear_79_6)"/>
</g>
<defs>
<linearGradient id="paint0_linear_79_6" x1="258.75" y1="-268.5" x2="50.2501" y2="102.75" gradientUnits="userSpaceOnUse">
<stop stop-color="#304AA7" stop-opacity="0.43"/>
<stop offset="0.40625" stop-color="#A73030" stop-opacity="0.43"/>
<stop offset="1"/>
</linearGradient>
<linearGradient id="paint1_linear_79_6" x1="-10.5" y1="198.75" x2="66" y2="105" gradientUnits="userSpaceOnUse">
<stop stop-color="#304AA7"/>
<stop offset="0.993021"/>
</linearGradient>
<linearGradient id="paint2_linear_79_6" x1="39.5" y1="26.5" x2="193.5" y2="287" gradientUnits="userSpaceOnUse">
<stop stop-color="white"/>
<stop offset="1" stop-color="white" stop-opacity="0"/>
</linearGradient>
<clipPath id="clip0_79_6">
<rect width="150" height="150" fill="white"/>
</clipPath>
</defs>
</svg>
